<svg height="100px" width="100px" fill="#ffffff" xmlns="http://www.w3.org/2000/svg" xmlns:xlink="http://www.w3.org/1999/xlink" version="1.1" x="0px" y="0px" viewBox="0 0 100 100" style="enable-background:new 0 0 100 100;" xml:space="preserve">
  <g>
    <path d="M50,5C25.147,5,5,25.147,5,50c0,24.853,20.147,45,45,45s45-20.147,45-45C95,25.147,74.853,5,50,5z M28.177,48.896   c-0.369-1.847-0.058-3.673,0.853-5.011c0.656-0.964,1.598-1.6,2.65-1.79c2.632-0.47,5.187,1.819,5.838,5.079   c0.369,1.846,0.059,3.672-0.852,5.01c-0.656,0.965-1.598,1.601-2.65,1.791c-0.228,0.041-0.455,0.061-0.682,0.061   C30.94,54.035,28.771,51.874,28.177,48.896z M38.561,31.771c0.822-1.384,2.032-2.208,3.406-2.321   c2.767-0.22,5.136,2.47,5.435,6.083c0.298,3.638-1.62,6.664-4.367,6.891c-0.105,0.009-0.21,0.013-0.314,0.013   c-2.633,0-4.834-2.622-5.12-6.097C37.462,34.668,37.804,33.045,38.561,31.771z M66.182,64.714c-0.49,3.729-3.203,6.406-7.081,6.987   c-0.447,0.067-0.905,0.101-1.362,0.101c-1.255,0-2.533-0.258-3.697-0.747c-0.515-0.216-0.989-0.471-1.447-0.717   c-0.87-0.467-1.626-0.872-2.495-0.959c-0.869,0.087-1.624,0.492-2.494,0.958c-0.459,0.247-0.934,0.501-1.45,0.718   c-1.586,0.667-3.385,0.899-5.058,0.646c-3.878-0.581-6.591-3.258-7.082-6.987c-0.538-4.091,1.751-8.108,5.567-9.768   c1.196-0.521,2.515-2.738,3.29-4.705c0.917-2.321,2.526-5.361,6.086-5.96v-0.099l1.034-0.013l0.111,0.006   c0.037-0.003,0.085-0.006,0.136-0.006h1v0.112c3.561,0.599,5.169,3.64,6.085,5.96c0.776,1.967,2.096,4.185,3.291,4.705   C64.431,56.606,66.72,60.623,66.182,64.714z M52.599,35.533c0.299-3.613,2.671-6.304,5.435-6.083   c1.374,0.113,2.584,0.937,3.406,2.321c0.757,1.275,1.099,2.898,0.961,4.569c-0.286,3.476-2.487,6.097-5.12,6.097   c-0.104,0-0.209-0.004-0.314-0.013C54.219,42.197,52.301,39.171,52.599,35.533z M71.823,48.896   c-0.595,2.978-2.764,5.139-5.156,5.139c-0.001,0-0.001,0-0.001,0c-0.227,0-0.454-0.02-0.682-0.061   c-1.053-0.19-1.994-0.826-2.65-1.791c-0.91-1.337-1.221-3.164-0.852-5.01c0.65-3.26,3.208-5.549,5.838-5.079   c1.053,0.19,1.994,0.825,2.65,1.79C71.881,45.223,72.192,47.049,71.823,48.896z M78.695,48.435V77.5c0,0.829-0.672,1.5-1.5,1.5   s-1.5-0.671-1.5-1.5V48.358c0-0.053,0.003-0.106,0.009-0.158c0.519-4.889-2.484-9.231-6.695-9.679   c-0.647-0.071-1.261-0.047-1.979,0.088c-0.498,0.095-1.013-0.072-1.362-0.438c-0.351-0.368-0.492-0.888-0.375-1.382   c0.189-0.796,0.285-1.59,0.285-2.36c0-4.917-3.445-8.916-7.681-8.916c-2.698,0-5.153,1.616-6.566,4.324   c-0.002,0.004-0.005,0.007-0.007,0.01c-0.03,0.056-0.068,0.107-0.104,0.159c-0.021,0.029-0.038,0.062-0.06,0.089   c-0.019,0.023-0.043,0.042-0.063,0.064c-0.047,0.051-0.093,0.102-0.146,0.145c-0.011,0.009-0.024,0.015-0.034,0.023   c-0.068,0.052-0.138,0.101-0.213,0.14c-0.003,0.001-0.005,0.004-0.008,0.005c-0.028,0.015-0.058,0.022-0.087,0.035   c-0.058,0.026-0.115,0.052-0.175,0.07c-0.05,0.015-0.1,0.022-0.15,0.032c-0.045,0.009-0.088,0.02-0.134,0.024   c-0.054,0.005-0.108,0.003-0.162,0.003c-0.043,0-0.086,0.002-0.129-0.002c-0.055-0.005-0.108-0.018-0.162-0.03   c-0.041-0.009-0.083-0.014-0.124-0.026c-0.065-0.019-0.127-0.048-0.189-0.076c-0.025-0.011-0.052-0.018-0.076-0.031   c-0.003-0.001-0.005-0.003-0.007-0.005c-0.072-0.038-0.139-0.085-0.205-0.135c-0.014-0.011-0.03-0.018-0.044-0.029   c-0.046-0.037-0.085-0.083-0.126-0.125c-0.027-0.028-0.058-0.053-0.083-0.083c-0.02-0.025-0.035-0.054-0.054-0.08   c-0.039-0.054-0.079-0.108-0.11-0.167c-0.002-0.004-0.005-0.007-0.007-0.01c-1.413-2.708-3.868-4.324-6.566-4.324   c-4.235,0-7.681,4-7.681,8.916c0,0.77,0.096,1.563,0.285,2.36c0.117,0.494-0.024,1.014-0.375,1.382   c-0.35,0.367-0.864,0.534-1.362,0.438c-0.72-0.136-1.337-0.159-1.977-0.088c-4.214,0.449-7.217,4.791-6.698,9.68   c0.006,0.052,0.009,0.105,0.009,0.158V77.5c0,0.829-0.672,1.5-1.5,1.5s-1.5-0.671-1.5-1.5V48.435   c-0.455-4.549,1.464-8.737,4.653-11.058V32.08c0-0.829,0.672-1.5,1.5-1.5s1.5,0.671,1.5,1.5v3.814   c0.554-0.164,1.123-0.294,1.715-0.357c0.265-0.028,0.53-0.046,0.795-0.052c-0.03-0.354-0.045-0.707-0.045-1.057   c0-5.645,3.541-10.376,8.272-11.599v-4.417c0-0.829,0.672-1.5,1.5-1.5s1.5,0.671,1.5,1.5v4.144c2.81,0.178,5.431,1.599,7.305,3.906   c2.006-2.469,4.865-3.95,7.896-3.95c0.072,0,0.141,0.01,0.213,0.012v-4.112c0-0.829,0.672-1.5,1.5-1.5s1.5,0.671,1.5,1.5v4.653   c4.324,1.525,7.468,6.041,7.468,11.363c0,0.35-0.015,0.702-0.045,1.057c0.265,0.006,0.531,0.024,0.798,0.053   c0.581,0.062,1.141,0.189,1.687,0.349v-3.391c0-0.829,0.672-1.5,1.5-1.5s1.5,0.671,1.5,1.5v4.864   C77.22,39.677,79.152,43.874,78.695,48.435z"></path>
  </g>
</svg>
